<mxGraphModel dx="1434" dy="794" grid="1" gridSize="10" guides="1" tooltips="1" connect="1" arrows="1" fold="1" page="1" pageScale="1" pageWidth="1169" pageHeight="827" math="0" shadow="0">
  <root>
    <mxCell id="0" />
    <mxCell id="1" parent="0" />
    <mxCell id="CK2oH4dM7S3I8Im-i2xL-1" value="Kế toán" style="shape=umlActor;verticalLabelPosition=bottom;verticalAlign=top;html=1;outlineConnect=0;" vertex="1" parent="1">
      <mxGeometry x="100" y="140" width="30" height="60" as="geometry" />
    </mxCell>
    <mxCell id="CK2oH4dM7S3I8Im-i2xL-2" value="Trưởng khoa" style="shape=umlActor;verticalLabelPosition=bottom;verticalAlign=top;html=1;outlineConnect=0;" vertex="1" parent="1">
      <mxGeometry x="100" y="400" width="30" height="60" as="geometry" />
    </mxCell>
    <mxCell id="CK2oH4dM7S3I8Im-i2xL-3" value="Giáo viên" style="shape=umlActor;verticalLabelPosition=bottom;verticalAlign=top;html=1;outlineConnect=0;" vertex="1" parent="1">
      <mxGeometry x="100" y="650" width="30" height="60" as="geometry" />
    </mxCell>
    <mxCell id="CK2oH4dM7S3I8Im-i2xL-4" value="Hệ thống Tính tiền giảng dạy" style="swimlane;fontStyle=1;align=center;verticalAlign=top;startSize=30;fontSize=14;" vertex="1" parent="1">
      <mxGeometry x="240" y="40" width="780" height="740" as="geometry" />
    </mxCell>
    <mxCell id="CK2oH4dM7S3I8Im-i2xL-5" value="Quản lý Khoa" style="ellipse;whiteSpace=wrap;html=1;" vertex="1" parent="CK2oH4dM7S3I8Im-i2xL-4">
      <mxGeometry x="40" y="60" width="140" height="70" as="geometry" />
    </mxCell>
    <mxCell id="CK2oH4dM7S3I8Im-i2xL-6" value="Quản lý Bằng cấp &amp;amp; Hệ số" style="ellipse;whiteSpace=wrap;html=1;" vertex="1" parent="CK2oH4dM7S3I8Im-i2xL-4">
      <mxGeometry x="40" y="150" width="140" height="70" as="geometry" />
    </mxCell>
    <mxCell id="CK2oH4dM7S3I8Im-i2xL-7" value="Quản lý Học phần" style="ellipse;whiteSpace=wrap;html=1;" vertex="1" parent="CK2oH4dM7S3I8Im-i2xL-4">
      <mxGeometry x="220" y="60" width="140" height="70" as="geometry" />
    </mxCell>
    <mxCell id="CK2oH4dM7S3I8Im-i2xL-8" value="Quản lý Kì học" style="ellipse;whiteSpace=wrap;html=1;" vertex="1" parent="CK2oH4dM7S3I8Im-i2xL-4">
      <mxGeometry x="220" y="150" width="140" height="70" as="geometry" />
    </mxCell>
    <mxCell id="CK2oH4dM7S3I8Im-i2xL-9" value="Thiết lập Đơn giá tiết dạy" style="ellipse;whiteSpace=wrap;html=1;" vertex="1" parent="CK2oH4dM7S3I8Im-i2xL-4">
      <mxGeometry x="400" y="60" width="140" height="70" as="geometry" />
    </mxCell>
    <mxCell id="CK2oH4dM7S3I8Im-i2xL-10" value="Tính tiền dạy toàn trường" style="ellipse;whiteSpace=wrap;html=1;" vertex="1" parent="CK2oH4dM7S3I8Im-i2xL-4">
      <mxGeometry x="400" y="150" width="140" height="70" as="geometry" />
    </mxCell>
    <mxCell id="CK2oH4dM7S3I8Im-i2xL-11" value="Quản lý Giáo viên (trong khoa)" style="ellipse;whiteSpace=wrap;html=1;" vertex="1" parent="CK2oH4dM7S3I8Im-i2xL-4">
      <mxGeometry x="100" y="320" width="140" height="70" as="geometry" />
    </mxCell>
    <mxCell id="CK2oH4dM7S3I8Im-i2xL-12" value="Quản lý Lớp học (của khoa)" style="ellipse;whiteSpace=wrap;html=1;" vertex="1" parent="CK2oH4dM7S3I8Im-i2xL-4">
      <mxGeometry x="100" y="410" width="140" height="70" as="geometry" />
    </mxCell>
    <mxCell id="CK2oH4dM7S3I8Im-i2xL-13" value="Phân công Giảng viên" style="ellipse;whiteSpace=wrap;html=1;" vertex="1" parent="CK2oH4dM7S3I8Im-i2xL-4">
      <mxGeometry x="100" y="500" width="140" height="70" as="geometry" />
    </mxCell>
    <mxCell id="CK2oH4dM7S3I8Im-i2xL-14" value="Xem lịch phân công" style="ellipse;whiteSpace=wrap;html=1;" vertex="1" parent="CK2oH4dM7S3I8Im-i2xL-4">
      <mxGeometry x="100" y="630" width="140" height="70" as="geometry" />
    </mxCell>
    <mxCell id="CK2oH4dM7S3I8Im-i2xL-15" value="Nhóm UC: Cấu hình hệ thống" style="text;html=1;strokeColor=none;fillColor=none;align=center;verticalAlign=middle;whiteSpace=wrap;rounded=0;fontStyle=1" vertex="1" parent="CK2oH4dM7S3I8Im-i2xL-4">
      <mxGeometry x="10" y="10" width="190" height="30" as="geometry" />
    </mxCell>
    <mxCell id="CK2oH4dM7S3I8Im-i2xL-16" value="Nhóm UC: Quản lý khoa" style="text;html=1;strokeColor=none;fillColor=none;align=center;verticalAlign=middle;whiteSpace=wrap;rounded=0;fontStyle=1" vertex="1" parent="CK2oH4dM7S3I8Im-i2xL-4">
      <mxGeometry x="40" y="270" width="160" height="30" as="geometry" />
    </mxCell>
    <mxCell id="CK2oH4dM7S3I8Im-i2xL-17" value="Nhóm UC: Chức năng cá nhân" style="text;html=1;strokeColor=none;fillColor=none;align=center;verticalAlign=middle;whiteSpace=wrap;rounded=0;fontStyle=1" vertex="1" parent="CK2oH4dM7S3I8Im-i2xL-4">
      <mxGeometry x="40" y="590" width="200" height="30" as="geometry" />
    </mxCell>
    <mxCell id="CK2oH4dM7S3I8Im-i2xL-18" value="Xem báo cáo tiền dạy cá nhân" style="ellipse;whiteSpace=wrap;html=1;" vertex="1" parent="CK2oH4dM7S3I8Im-i2xL-4">
      <mxGeometry x="580" y="530" width="160" height="70" as="geometry" />
    </mxCell>
    <mxCell id="CK2oH4dM7S3I8Im-i2xL-19" value="Xem báo cáo tiền dạy Khoa" style="ellipse;whiteSpace=wrap;html=1;" vertex="1" parent="CK2oH4dM7S3I8Im-i2xL-4">
      <mxGeometry x="580" y="420" width="160" height="70" as="geometry" />
    </mxCell>
    <mxCell id="CK2oH4dM7S3I8Im-i2xL-20" value="Xem báo cáo tiền dạy Toàn trường" style="ellipse;whiteSpace=wrap;html=1;" vertex="1" parent="CK2oH4dM7S3I8Im-i2xL-4">
      <mxGeometry x="580" y="310" width="160" height="70" as="geometry" />
    </mxCell>
    <mxCell id="CK2oH4dM7S3I8Im-i2xL-21" value="Nhóm UC: Báo cáo &amp;amp; Thống kê" style="text;html=1;strokeColor=none;fillColor=none;align=center;verticalAlign=middle;whiteSpace=wrap;rounded=0;fontStyle=1" vertex="1" parent="CK2oH4dM7S3I8Im-i2xL-4">
      <mxGeometry x="560" y="270" width="200" height="30" as="geometry" />
    </mxCell>
    <mxCell id="CK2oH4dM7S3I8Im-i2xL-62" value="" style="endArrow=block;endFill=0;startArrow=none;html=1;rounded=0;exitX=0.5;exitY=0.5;exitDx=0;exitDy=0;exitPerimeter=0;entryX=0;entryY=0.5;entryDx=0;entryDy=0;" edge="1" parent="1" source="CK2oH4dM7S3I8Im-i2xL-2" target="CK2oH4dM7S3I8Im-i2xL-3">
      <mxGeometry width="100" height="100" relative="1" as="geometry">
        <mxPoint x="115" y="560" as="sourcePoint" />
        <mxPoint x="115" y="620" as="targetPoint" />
        <Array as="points">
          <mxPoint x="115" y="550" />
        </Array>
      </mxGeometry>
    </mxCell>
    <mxCell id="CK2oH4dM7S3I8Im-i2xL-63" value="" style="endArrow=none;html=1;rounded=0;entryX=0;entryY=0.5;entryDx=0;entryDy=0;" edge="1" parent="1" source="CK2oH4dM7S3I8Im-i2xL-1" target="CK2oH4dM7S3I8Im-i2xL-5">
      <mxGeometry width="50" height="50" relative="1" as="geometry">
        <mxPoint x="160" y="440" as="sourcePoint" />
        <mxPoint x="210" y="390" as="targetPoint" />
      </mxGeometry>
    </mxCell>
    <mxCell id="CK2oH4dM7S3I8Im-i2xL-64" value="" style="endArrow=none;html=1;rounded=0;entryX=0;entryY=0.5;entryDx=0;entryDy=0;" edge="1" parent="1" source="CK2oH4dM7S3I8Im-i2xL-1" target="CK2oH4dM7S3I8Im-i2xL-6">
      <mxGeometry width="50" height="50" relative="1" as="geometry">
        <mxPoint x="160" y="180" as="sourcePoint" />
        <mxPoint x="290" y="105" as="targetPoint" />
      </mxGeometry>
    </mxCell>
    <mxCell id="CK2oH4dM7S3I8Im-i2xL-65" value="" style="endArrow=none;html=1;rounded=0;entryX=0;entryY=0.5;entryDx=0;entryDy=0;" edge="1" parent="1" source="CK2oH4dM7S3I8Im-i2xL-1" target="CK2oH4dM7S3I8Im-i2xL-7">
      <mxGeometry width="50" height="50" relative="1" as="geometry">
        <mxPoint x="140" y="180" as="sourcePoint" />
        <mxPoint x="290" y="195" as="targetPoint" />
      </mxGeometry>
    </mxCell>
    <mxCell id="CK2oH4dM7S3I8Im-i2xL-66" value="" style="endArrow=none;html=1;rounded=0;entryX=0;entryY=0.5;entryDx=0;entryDy=0;" edge="1" parent="1" source="CK2oH4dM7S3I8Im-i2xL-1" target="CK2oH4dM7S3I8Im-i2xL-8">
      <mxGeometry width="50" height="50" relative="1" as="geometry">
        <mxPoint x="140" y="180" as="sourcePoint" />
        <mxPoint x="470" y="105" as="targetPoint" />
      </mxGeometry>
    </mxCell>
    <mxCell id="CK2oH4dM7S3I8Im-i2xL-67" value="" style="endArrow=none;html=1;rounded=0;exitX=1;exitY=0.3333333333333333;exitDx=0;exitDy=0;exitPerimeter=0;entryX=0;entryY=0.5;entryDx=0;entryDy=0;" edge="1" parent="1" source="CK2oH4dM7S3I8Im-i2xL-1" target="CK2oH4dM7S3I8Im-i2xL-9">
      <mxGeometry width="50" height="50" relative="1" as="geometry">
        <mxPoint x="140" y="180" as="sourcePoint" />
        <mxPoint x="470" y="195" as="targetPoint" />
      </mxGeometry>
    </mxCell>
    <mxCell id="CK2oH4dM7S3I8Im-i2xL-68" value="" style="endArrow=none;html=1;rounded=0;exitX=1;exitY=0.3333333333333333;exitDx=0;exitDy=0;exitPerimeter=0;entryX=0;entryY=0.5;entryDx=0;entryDy=0;" edge="1" parent="1" source="CK2oH4dM7S3I8Im-i2xL-1" target="CK2oH4dM7S3I8Im-i2xL-10">
      <mxGeometry width="50" height="50" relative="1" as="geometry">
        <mxPoint x="140" y="170" as="sourcePoint" />
        <mxPoint x="650" y="105" as="targetPoint" />
      </mxGeometry>
    </mxCell>
    <mxCell id="CK2oH4dM7S3I8Im-i2xL-70" value="" style="endArrow=none;html=1;rounded=0;entryX=0;entryY=0.5;entryDx=0;entryDy=0;" edge="1" parent="1" source="CK2oH4dM7S3I8Im-i2xL-2" target="CK2oH4dM7S3I8Im-i2xL-11">
      <mxGeometry width="50" height="50" relative="1" as="geometry">
        <mxPoint x="140" y="440" as="sourcePoint" />
        <mxPoint x="190" y="390" as="targetPoint" />
      </mxGeometry>
    </mxCell>
    <mxCell id="CK2oH4dM7S3I8Im-i2xL-71" value="" style="endArrow=none;html=1;rounded=0;entryX=0;entryY=0.5;entryDx=0;entryDy=0;" edge="1" parent="1" source="CK2oH4dM7S3I8Im-i2xL-2" target="CK2oH4dM7S3I8Im-i2xL-12">
      <mxGeometry width="50" height="50" relative="1" as="geometry">
        <mxPoint x="140" y="440" as="sourcePoint" />
        <mxPoint x="190" y="390" as="targetPoint" />
      </mxGeometry>
    </mxCell>
    <mxCell id="CK2oH4dM7S3I8Im-i2xL-72" value="" style="endArrow=none;html=1;rounded=0;entryX=0;entryY=0.5;entryDx=0;entryDy=0;" edge="1" parent="1" source="CK2oH4dM7S3I8Im-i2xL-2" target="CK2oH4dM7S3I8Im-i2xL-13">
      <mxGeometry width="50" height="50" relative="1" as="geometry">
        <mxPoint x="140" y="440" as="sourcePoint" />
        <mxPoint x="190" y="390" as="targetPoint" />
      </mxGeometry>
    </mxCell>
    <mxCell id="CK2oH4dM7S3I8Im-i2xL-74" value="" style="endArrow=none;html=1;rounded=0;entryX=0;entryY=0.5;entryDx=0;entryDy=0;" edge="1" parent="1" source="CK2oH4dM7S3I8Im-i2xL-3" target="CK2oH4dM7S3I8Im-i2xL-14">
      <mxGeometry width="50" height="50" relative="1" as="geometry">
        <mxPoint x="140" y="690" as="sourcePoint" />
        <mxPoint x="190" y="640" as="targetPoint" />
      </mxGeometry>
    </mxCell>
    <mxCell id="CK2oH4dM7S3I8Im-i2xL-76" value="" style="endArrow=none;html=1;rounded=0;exitX=1;exitY=0.3333333333333333;exitDx=0;exitDy=0;exitPerimeter=0;entryX=0;entryY=0.5;entryDx=0;entryDy=0;" edge="1" parent="1" source="CK2oH4dM7S3I8Im-i2xL-1" target="CK2oH4dM7S3I8Im-i2xL-20">
      <mxGeometry width="50" height="50" relative="1" as="geometry">
        <mxPoint x="140" y="170" as="sourcePoint" />
        <mxPoint x="650" y="195" as="targetPoint" />
      </mxGeometry>
    </mxCell>
    <mxCell id="CK2oH4dM7S3I8Im-i2xL-77" value="" style="endArrow=none;html=1;rounded=0;exitX=1;exitY=0.5;exitDx=0;exitDy=0;exitPerimeter=0;" edge="1" parent="1" source="CK2oH4dM7S3I8Im-i2xL-1" target="CK2oH4dM7S3I8Im-i2xL-19">
      <mxGeometry width="50" height="50" relative="1" as="geometry">
        <mxPoint x="140" y="180" as="sourcePoint" />
        <mxPoint x="830" y="355" as="targetPoint" />
      </mxGeometry>
    </mxCell>
    <mxCell id="CK2oH4dM7S3I8Im-i2xL-78" value="" style="endArrow=none;html=1;rounded=0;exitX=1;exitY=0.6666666666666666;exitDx=0;exitDy=0;exitPerimeter=0;" edge="1" parent="1" source="CK2oH4dM7S3I8Im-i2xL-1" target="CK2oH4dM7S3I8Im-i2xL-18">
      <mxGeometry width="50" height="50" relative="1" as="geometry">
        <mxPoint x="140" y="190" as="sourcePoint" />
        <mxPoint x="830" y="465" as="targetPoint" />
      </mxGeometry>
    </mxCell>
    <mxCell id="CK2oH4dM7S3I8Im-i2xL-79" value="" style="endArrow=none;html=1;rounded=0;exitX=1;exitY=0.6666666666666666;exitDx=0;exitDy=0;exitPerimeter=0;" edge="1" parent="1" source="CK2oH4dM7S3I8Im-i2xL-2" target="CK2oH4dM7S3I8Im-i2xL-19">
      <mxGeometry width="50" height="50" relative="1" as="geometry">
        <mxPoint x="140" y="450" as="sourcePoint" />
        <mxPoint x="190" y="400" as="targetPoint" />
      </mxGeometry>
    </mxCell>
    <mxCell id="CK2oH4dM7S3I8Im-i2xL-80" value="" style="endArrow=none;html=1;rounded=0;exitX=1;exitY=0.6666666666666666;exitDx=0;exitDy=0;exitPerimeter=0;" edge="1" parent="1" source="CK2oH4dM7S3I8Im-i2xL-2" target="CK2oH4dM7S3I8Im-i2xL-18">
      <mxGeometry width="50" height="50" relative="1" as="geometry">
        <mxPoint x="140" y="450" as="sourcePoint" />
        <mxPoint x="830" y="465" as="targetPoint" />
      </mxGeometry>
    </mxCell>
    <mxCell id="CK2oH4dM7S3I8Im-i2xL-81" value="" style="endArrow=none;html=1;rounded=0;exitX=1;exitY=0.6666666666666666;exitDx=0;exitDy=0;exitPerimeter=0;" edge="1" parent="1" source="CK2oH4dM7S3I8Im-i2xL-3" target="CK2oH4dM7S3I8Im-i2xL-18">
      <mxGeometry width="50" height="50" relative="1" as="geometry">
        <mxPoint x="140" y="690" as="sourcePoint" />
        <mxPoint x="190" y="640" as="targetPoint" />
      </mxGeometry>
    </mxCell>
  </root>
</mxGraphModel>
